<svg xmlns="http://www.w3.org/2000/svg" viewBox="0 22.5 200 151.5"><g fill="#FFF"><path d="M8.702 164.662h87.13c2.06 0 3.627.495 3.627 1.154 0 .66-1.649 1.154-3.627 1.154H8.702c-2.06 0-3.627-.494-3.627-1.154 0-.577 1.566-1.154 3.627-1.154zM112.4 137.707L111.246 149l-.247 2.556m54.817 31.654l2.06-1.485 9.233-6.677M190.133 59.15l-45.008 77.98-2.225 3.874-.33.495-4.451-2.638-4.451-2.555-4.452-2.555-4.451-2.556-4.534-2.638-4.45-2.555-4.452-2.555-4.451-2.638.247-.412 2.225-3.875 45.09-78.062zm4.369-7.583l-2.144 3.71-35.692-20.609 2.143-3.709c.907-1.566 2.968-2.143 4.616-1.236l29.923 17.31c1.566.907 2.143 2.885 1.154 4.534z"/><path d="M139.19 142.983l-4.286 2.885-5.523 3.71-5.523 3.709-5.523 3.71-5.522 3.708-5.523 3.71s-2.803 1.978-4.04 1.319c-1.236-.66-.741-4.04-.741-4.04l.742-6.429.741-6.43.742-6.43.742-6.429.742-6.43.577-4.945c.083.082.083.082.165.082l32.066 18.217c.082 0 .164.083.164.083z"/></g></svg>