<svg xmlns="http://www.w3.org/2000/svg" viewBox="0 0 200 200"><path fill="#02070C" d="M99.1 192c-49.6 0-89.8-40.2-89.8-89.8v-2.7C9.3 49 50.3 8 100.9 8c49.6 0 89.8 40.2 89.8 89.8v2.7c0 50.5-41 91.5-91.6 91.5z"/><path fill="#14CC97" d="M118.9 34.9c1.8-1.3 3-1.8 9.1 1.4 5.5 2.8 8.4 7.2 8.8 7.7l.1.1c.4.4 1.2 1.8 1.2 1.9.6.9.9 2 1.4 3 .7 3.2 0 3.6-1.8 5.8 0 .1 0 .1-.1.1-.5.5-1.7 2.4-2.8 3.7-.8.9 1.7 2.1 3.1 5.6.3.6.2 1.5-.3 2-.9.8-2.9.1-3.8-.1-.1-.1-1.6-.9-2-.9-.1.5-.3 1.5-1.4 2.8-.3.3-.7.5-.7.9 1 .5 5.3-.1 7.6 5.4.1.3.2.7.3 1.1.1.3.5 2.2.6 2.5.4 2.5.6.9.6 8.9.1 1.6-.1 1.3 0 2.4 0 .3-.1.7 0 1 .1.3.1.7-.1 1.1-.2 2.1-.8 4-1 5.6-.3.3-.1.7-.3 1-.1.3-.3.7-.3 1.2.6 2.2-.4 1.5-.6 2.9 0 0-.3 1.7-.5 2-.1.4-.1.7-.1 1.2-.1.5-.6 2.4-.6 3.1 0 .8 1.4 2 .2 5.1-.1.6-.1 1.3-.3 1.9-.8 1.9.3 1.7 2.2 4.2 3.4 4.9 4.2 4.5 11.9 17.3l3.5 5.7c.2.4 1.2 2.4 1.6 3 .3.5.5 1.3.3 1.9-.1.5-.1.9-.3 1.5-.1.3-.3.4-.5.6-1.4 1.4-3.2 5.4-4.2 7.7-.2.5-.1 1-.5 1.5 0 .1-.1.1-.1.1-.1.1-.2.3-.3.4 0 .1-.1.1-.1.1-.2.2-.3.5-.5.7-.1 0-.1.1-.2.1-.1.3-1 1.7-1.6 2.1-.1 0-.2-.1-.3-.1-.3-.2-.5-1.2-1-1.9-.1-.3-1.3-2.8-1.4-2.9-.3-1.5-2.3-6.1-3.1-7.3 0-.1 0-.1-.1-.1l-.1-.1c-.1-.3-.2-.7-.4-1-.1 0-1.6.3-2.2.6-.1 1.9.4 1.4.7 4 .1.6.3 1.3.3 1.9 0 .7 0 1.5.2 2.2l.2.2c.2.7.1 1.4 0 2.1-.3 1 .3 2.4.1 3.1-.2.6-.3 1.3-.7 1.7 0 .1 0 .1-.1.1s-.1 0-.1.1c-.1.1-.3.3-.1.5.1.2.1.5.1.7-48.7 0-44.1.2-45.1-.5-.4-.3-.1-.7.4-2.7.8-3.8 2.1-6.9 3-10.7.4-2.6.1-11.9.1-12-.1-.2-.2-.3-.2-.5v-.9c-.8.1-.3.2-1.2 0-.2-.9.1-1.1.3-2.2.8-5.2 1.3-2.3 1.2-15.6-.1-4.1-1.8-12.7-2-13.6-.5.1-.8.3-1.3.5-.1 0-.1 0-.2.1l-.1.1h-.2l-.1.1c-.7.1-2.8 1.3-3.5 1.5l-.1.1c-.3.1-.6.2-.8.4-.1 0-.1 0-.2.1l-.1.1c-.3.1-.6.3-.8.4-.4.1-.4.3-1.9 1C81 113.9 74 113.4 73 113c-1.8-.4-3-3.9-8.4-8.7-7.8-7.9-7.8-6.6-7-8.3-.1-.1-.2-.3-.3-.5.9-1.2 1.4-2.2 2.7-4.6.1-.3.1-.5.1-.8 0-.3-.1-.5-.2-.9-.1-.6-.3-1.3-.5-1.8-.1-.3-.7-.7-.6-2.3 0-.5.2-.9.3-1.5-.2-.3-.4-.7-.6-1-.1-.3-.2-.7-.5-1.1-.8-1.3-1.3-1.4-2.7-4.7-.1-.1-.1-.3-.3-.2-.4.1-.8.3-1.2.3-.8.1-1-1.2-1.4-1.9-.2-.5-1.3-.3-1.6-.3-3.7-.6-5.8-1.4-5.8-5.2 0-4.4.8-5.8 8.5-11.3.5-.3.8-.7 1.3-1.1.8-.6.1-1.3.7-2.1h.5c.1.2.2.4.2.7 5.7-7.3 2.7-6.8 2.2-8.4-.1-.3.1-.5.4-.5 1.4.3 10.3 5.9 10.4 6.4.1.3-.3.7-.7.6-.3-.1-.5-.3-.7-.5-1.2-.6-3.5 2-4 3.7-.3 1.1-1.3 1.8-.7 2.7.3.7.7 1.3 1 1.9.5-.1.9-.4 1.3-.8.3-.1.6-.3.8-.5-.1-.5-.5-.7-.7-1.2V59c.3-.4.8-.5 1.3-.7l1.5-.9c.1 0 .1-.1.3-.1.5-.4.9-.8 1.5-.9.4-2.1.5-1.4 1.4-1.9.2-.2.2-.5.5-.6.5-.3 1-.4 1.5-.7.3-.6 1.8-1.7 3.1-1.6.5-.9.3-.7 1.8-1.3.7-.2 1-.6 2.7.7.2-.1.3-.1.5-.2.1-.7.3-.6.5-.6.1.1.1.2.2.3.1-.1.3-.1.4-.2.2-.3-.1-.7.7-.8.1.1.1.1.2.1.3-.3.6-.6 1-.5.3 0 .3.3.4.5.7-.5.2-.7 3-1.5-.1-.3-.2-.8-.1-1.2.3-.7 4.2-.2 6.4.8 1.2.5 4.1 2.3 4.1 3.6-.2.1-.3.1-.5.1 0 .1-.1.1-.1.1.4.2.7.5 1 .7.1.1.1.2.2.1 0-.1.1-.2.1-.3.3-.1.5-.1.8 0 .4.2 2.5 1.7 2.7 1.9h.1c.1-.3.3-.7.7-.8-.1-.5-.6-.5-.8-1.1-.5-1.6.7-2.5 1.4-2.8.7-2.7 1.4-2.8 2.3-2.8.7 0 1.2-1.2 1.2-1.5-.3-.5-4-3.9-3.4-5.2.4-1.1 3.5-.3 4.3 0 1.9.5 3.1 1.5 3.7 1.6.4-.4.9-.7 1.4-1.3.7-.7 2.8-3.3 5.4-5.1m-30 12.9v.3c.1.1.1.1.2.1.5-.1.9-.1 1.4-.1.4 0 .1-.3 1.5.1v-.1h.3c-.6-.5-2.9-.5-3.4-.3m4 .6v.3c2.6 1.5 2.2 1.7 2.7 1.4v-.4c-.1-.1-1.2-.7-1.3-.7-.3-.1-.5-.1-.7-.3-.1-.2-.4-.2-.7-.3m-2.6 1.7c.1.3.1.5 0 .7-.1.1-.1.1-.2.1v.2H90l-.1-.1c0-.1 0-.2-.1-.3-.1.1-.3.2-.3.3-.1 0-.1.1-.2.1v.2c0 .2-.1.3-.1.5-.1.1-.2.1-.3.2-.1.1-.3.1-.5.2-.1.1-.1.2-.1.3-.2.1-.5.1-.7.3-3.7 2.4-3.5 2.3-3.5 2.7-.1 0-.3.1-.4.1.1.5.3 1 .5 1.6l.3 1.5c.1.3.3.5.5.8.1.2.8 1.3 1 1.4.6.5 2.3 2.6 2.9 3.2.2.2.5.3.7.4.3.1.4.4.7.6 6 4.8 3.1 2.4 5.6 5 .5.3 1 .1 1.5.3.3.2.6.5.9.8.3.3 1 .6 1.2 2.2 0 .5 1 .3 2.1.5.3.1.3.4.3.6.2.1.5.2.6.5.4-.2.8-.5 1.3-.6.7-.3 1.4-.7 2.1-1 1-.5 1.2-.3 1.7-1.1.3-.6.7-1.1 1.4-1.5-1.5-3.5.5-4.2-2.2-5-1.2-.5-2.5-.3-4.4-1.4-2.2-.9-1.8-2.1-2-2.6-.1-.5.1-.9.3-1.3.2-.3.5-.6.6-.9.1-.2.2-.5.1-.7-.1-.2 0-.4 0-.5-.1 0-.1-.1-.2-.1 0-.2 0-.4.1-.5.1-.1.2-.3.3-.5.1-.1.3-.3.3-.5-.4-.2-.8-.4-1.3-.5-.3.3-.7.3-.9.5-.1.1-.2.3-.3.4-.1 0-.1-.1-.1-.1-.1-.3 0-.5.1-.7.1 0 .1-.1.2-.1.1-.1.1-.3.1-.5-.2-.2-.5-.3-.7-.3-.1.1-.3.3-.5.3 0 .1-.1.2-.1.3-.4.3-.8-.1-1-.5.1-.3.5-.2.7-.2 0-.2.1-.4 0-.5-.1-.2-.5-.2-.5-.5.3-.4.4-.5.3-.6-.2-.2-.5-.3-.8-.5-.1-.1-.2-.3-.4-.4-5.4-3.1-5.8-2.8-6.4-2.8m6.1.2c-.1.2-.1.5 0 .7.3.1.5.3.8.3 0-.1-.1-.1-.1-.2.1-.1 0-.9-.7-.8m-9.6 2.2c-.1.1-2 1.4-2.1 1.7.3 0 2.2-1.2 2.5-1.6-.1-.1-.2-.3-.4-.1m-25.4 7.1c-.1.3.3.6.5.7.1.3 0 .5-.3.7v.1c.2.1.1.4.1.7.4 0 .9 0 1.2.5.1 0 .2-.1.3-.1.1-.2.2-.3.4-.4-.3-.9-1.3-1.5-1.2-3.1-.5.2-.8.5-1 .9m5.1-.8v.2c.2.2.3.5.5.7.2.1.3-.1.5-.2.3-.1.3-.4.5-.5 0-.1-.1-.2-.1-.3-1.3 0-.4.1-1.4.1m-.7.3c.1.3.3.5.5.7.1.2.3.2.5.3v-.3c-.6-.8-.6-1.1-1-.7m-5.7 1.6c-.4.3-.8.7-1.2 1v.2c.1 0 .2 0 .3-.1l.1.1c.4 0 1.2-.8 1.4-1.2-.1-.1-.1-.1-.2-.1.1-.1.1-.3.2-.4-.2.1-.4.4-.6.5m.6-.3c-.1.1-.1.2-.1.3.1-.1.3-.1.5-.1 0-.1-.1-.2-.4-.2m12.4 1.2c-.3.3.3.4.1 1 .7 1.7-1 2-1.6 1.2-.1-.2-.1-.5-.3-.7-.3.1-.6.2-.8.5-.1.3.3.5.3.7.1.3-.5.3-.5.1-.1-.2-.1-.4-.3-.5-.3.1-2.9 2-5 3.4-.1.1-.5.3-.4.5.1.9.6 1.9.6 2.8 0 .6.1 1.3.1 1.9.3.4.7.3.9 1.4.1.9.3 1.9.5 2.8.3 1.7-.1 3.6.2 4 .1.3.4.5.5.8 2.6 6.4.8 1.8 3.8 7 2 3 1.2 2.8 2.3 4 1.7 1.6 1.6 3.1 2.7 3.2.5.1.9.1 1.4.4.1.1.3 0 .4 0 .3-.1.7-.1 1 .1.3-.4.8-.5 1.3-.8 1.9-1.3 2-1.5 2.7-1.8.8-.4.4-.1.9-1.3.4-.8 1.4-1.9 2.4-2.1.5.1.8.3 1.4.3.2.1 1.3-1 1.5-1.3 1-1.2.8-.7 1.5-1 .1-.5-.3-1.3.6-1.6.3-.1.5 0 .7 0-.2-.4-.5-.8-.7-1.3-.2-.3-.2-.7-.5-.9-2-1.5-2.2-2.6-3.3-3.4-3.2-2.2-2.9-2.3-4.7-3.5-3.9-2.9-3.7-2.6-3.8-3-.3-.9.5-2.3 1.3-3 0-.3-.3-.6-.4-.8-1.2-1.7-2.9-2.5-2-4.9.1-.2.2-.4.2-.6-3.8-3.2-2.1-2.2-3.8-4h-.1c-.5-.1-.8.1-1.1.4m-15.2.9c-.2.1-.4.4-.5.6-.1.1 0 .2 0 .3.2-.1.4-.2.5-.4 0 .1.1.2.3.3.3-.2.5-.5.7-.7.1-.1.1-.2.1-.3h-.3V62c-.4.1-.6.3-.8.5m14.4.3c-.4.1-.4.8 0 .9.3.1.8 0 .7-.4.1-.5-.3-.7-.7-.5m-16.1 1.8c-.1.1 0 .3.1.3s.2-.1.3-.1c.3-.1.1-.5.1-.8-.1.2-.3.4-.5.6m-.9.5c-.7.3-.7-.2-1.6.5v.2c-.1 0-.1.1-.1.1-.3.6-.9.3-1.7 1.3.5.2.3-.1 1.8.9.1-.3.4-.3.7-.3.5-.6.8-.3.7-.8h-.2c-.1-.3-.1-.5-.1-.7 0-.2.3-.1.4-.3.2-.2.3-.5.6-.5.1-.1.4-.1.3-.3-.5-.2-.6-.2-.8-.1m-4.1 4.2c.1 0 .3.1.3.1v.3c.3.3.8.3 1.4.3.2 0 .4-.2.5-.3 0-.1-.1-.1-.1-.1-.1 0-.3.1-.5.1 0 0 .1 0 .1-.1-.1-.7.4-.4 0-.9v-.1c.1-.1.2-.2.3-.4-.3 0-.5.1-.7.1-.3-.3-.6-.6-1-.7-.6.2-.6 1.1-.3 1.7m1.6 5.6c.5 1.7.8 2.1 2.2 1.3.1-.3-.1-.6-.2-.9-.4.1-.7.3-1.2.3-.1-.3.1-.5.3-.6l-.3-.3c-.3-.1-.7-.1-.8.2z"/></svg>