<svg xmlns="http://www.w3.org/2000/svg" viewBox="0 47.5 200 104.1"><g fill="#FFF"><path d="M66.7 123.7H45.9v19c0 .6-.1 1.2-.3 1.8-.6 1.3-1.6 1.9-3 1.9H13.2c-2.3 0-3.6-1.3-3.6-3.6V95.7c0-2.1 1.4-3.5 3.5-3.5h14.3V58.1c0-1.7.9-3 2.5-3.4.4-.1.8-.1 1.2-.1h85.4c.6 0 1.3.1 1.8.3 1.3.6 1.9 1.7 1.9 3.1v26.9h54.2c.7 0 1.5.1 2.1.5 1.1.7 1.6 1.8 1.6 3v24.9h8.7c2.2 0 3.6 1.4 3.6 3.6v31.2c0 1.7-1 3-2.5 3.4-.3.1-.6.1-.9.1h-12.2c-1.8 0-2.9-.9-3.4-2.6 0-.1-.2-.3-.4-.3-.2-.1-.4 0-.6 0H93c.6-.9 1.2-1.7 1.8-2.6 2.3-3.2 4.5-6.4 6.7-9.6.1-.2.3-.4.3-.7v-12.2H80.9v8.9h12.2v4.4H54.8v-4.3H67v-8.5c-.2-.1-.3-.2-.3-.4h13.5c-4.3-.1-8.7-.1-13 0h-.5zM30.6 92.2h11.6c2 0 3.7 1.3 3.7 3.7-.1 4.3 0 8.5 0 12.8 0 .7 0 .7.7.7h70.2V57.9H30.6v34.3zm140.5 44v-19.3c0-1.6.9-2.9 2.4-3.3.4-.1.7-.1 1.1-.2V88.3h-54.5V120c0 2.3-1.4 3.6-3.6 3.6H105v12.5c21.9.1 44 .1 66.1.1zM12.8 95.5v43.3h29.8V95.5H12.8zm175.6 51.4v-29.7h-15.6v29.7h15.6zm-67.2-.8h37c-.1-.5-.3-1-.4-1.5-.1-.6-.4-.8-1-.8h-34.7c-.1 0-.3.1-.3.2-.2.8-.4 1.4-.6 2.1zm-47.5-31h-6c-.5 0-.9.4-.9.9s.4.9.9.9h12.1c.7-.1 1-.9.6-1.4-.2-.2-.6-.4-.9-.4-1.9-.1-3.9 0-5.8 0zm-46 29.6s0-.1 0 0c.2-.1.3-.1.5-.1 1.1 0 1.9-.9 1.9-2s-.8-2-1.9-2h-1c-.9 0-1.7.7-1.9 1.6-.2.9.3 1.9 1.1 2.2.4.2.8.2 1.3.3zm153 6.1c.6 0 1.2-.2 1.5-.8s.1-1.2-.4-1.6c-.5-.4-1.6-.4-2.1 0s-.7 1-.5 1.6c.1.5.6.8 1.5.8zm0-35.9h-3c-.4 0-.8 0-.8.5s.4.5.8.5h5.9c.4 0 .8 0 .8-.5s-.4-.5-.7-.5h-3zm-44.2 27.5h2.4c.1 0 .3-.2.3-.3v-1.2c0-.3-.1-.4-.4-.4h-2c-.3 0-.4.1-.4.4.1.4.1.9.1 1.5zm-28 0h2.6c.1 0 .2 0 .2-.1.3-.6.6-1.2.9-1.9h-2.5c-.1 0-.3.1-.3.1-.3.7-.6 1.2-.9 1.9zm51.2-2c.2.7.4 1.2.6 1.8 0 .1.1.2.2.2h2.7c-.3-.7-.5-1.2-.7-1.8 0-.1-.2-.2-.3-.2h-2.5zm3.8 0c.3.7.5 1.2.7 1.7 0 .1.2.2.3.2h2.7c-.3-.7-.5-1.2-.8-1.8 0-.1-.2-.2-.3-.2-.8.1-1.7.1-2.6.1zm3.8 0c.3.7.6 1.3.9 1.8 0 .1.2.1.3.1h2.6c-.3-.7-.6-1.3-.9-1.8 0-.1-.2-.2-.3-.2-.9.1-1.7.1-2.6.1zm-50.8 2h2.6c.1 0 .2-.1.3-.2.2-.6.4-1.1.6-1.8h-2.6c-.1 0-.2.1-.2.2-.2.6-.5 1.2-.7 1.8zm3.9 0h2.6c.1 0 .3-.1.3-.2.2-.6.3-1.2.5-1.8h-2.5c-.1 0-.3.1-.3.2l-.6 1.8zm8 0h2.5c.1 0 .3-.2.3-.3.1-.4.1-.8.2-1.2.1-.3-.1-.4-.4-.4h-2c-.1 0-.3.2-.4.3 0 .4-.1 1-.2 1.6zm14.6-2h-1.2c-1.6 0-1.6 0-1.5 1.6v.2c0 .1.1.2.2.2h2.6c0-.7 0-1.3-.1-2zm8.2 2c-.1-.6-.2-1.2-.3-1.7 0-.1-.2-.3-.4-.3h-2c-.3 0-.4.1-.3.4.1.4.1.9.2 1.3 0 .1.2.3.3.3h2.5zm4.5-2c.2.6.3 1.2.5 1.7 0 .1.2.2.3.2h2.6l-.6-1.8c0-.1-.2-.2-.4-.2-.7.1-1.5.1-2.4.1zm-39.7 0h-2.6c-.1 0-.2.1-.2.1-.3.6-.5 1.2-.8 1.8h2.6c.1 0 .3-.1.3-.2.3-.4.5-1 .7-1.7zm11.7 0h-2.5c-.1 0-.2.1-.3.2-.2.5-.3 1.1-.4 1.7h2.6c.1 0 .2-.1.2-.2.1-.4.2-1 .4-1.7zm4.6 2h2.5c.1 0 .3-.2.3-.3.1-.5.1-1 .1-1.6h-2.5c-.1 0-.3.2-.3.3 0 .5 0 1-.1 1.6zm22.9 0c-.2-.6-.3-1.2-.5-1.8 0-.1-.2-.2-.2-.2H152c.1.6.2 1.2.4 1.7 0 .1.2.3.3.3h2.5zm-11.1-2c0 .6.1 1.2.1 1.7 0 .1.1.3.2.3h2.6c-.1-.6-.1-1.2-.2-1.8 0-.1-.2-.2-.3-.2h-2.4z"/><path d="M79.5 115.1c.3 0 .7.2.9.4.4.5.1 1.3-.6 1.4h-.5m-12.6 6.8c.2 0 .3-.1.5-.1h13c-4.5.1-9 .1-13.5.1z"/></g></svg>