<?xml version="1.0" encoding="utf-8"?>
<!-- Generator: Adobe Illustrator 18.0.0, SVG Export Plug-In . SVG Version: 6.00 Build 0)  -->
<!DOCTYPE svg PUBLIC "-//W3C//DTD SVG 1.1//EN" "http://www.w3.org/Graphics/SVG/1.1/DTD/svg11.dtd">
<svg version="1.1" id="Layer_1" xmlns="http://www.w3.org/2000/svg" xmlns:xlink="http://www.w3.org/1999/xlink" x="0px" y="0px"
	 viewBox="0 22.5 200 151.5" enable-background="new 0 22.5 200 151.5" xml:space="preserve">
<g transform="translate(0 -952.36)">
	<g transform="matrix(.82431 0 0 .82431 11.917 184.81)">
		<path fill="#FFFFFF" d="M-3.9,1130.9h105.7c2.5,0,4.4,0.6,4.4,1.4v0c0,0.8-2,1.4-4.4,1.4H-3.9c-2.5,0-4.4-0.6-4.4-1.4v0
			C-8.3,1131.6-6.4,1130.9-3.9,1130.9z"/>
		<path fill="#FFFFFF" d="M121.9,1098.2l-1.4,13.7l-0.3,3.1"/>
		<path fill="#FFFFFF" d="M186.7,1153.4l2.5-1.8l11.2-8.1"/>
		<polygon fill="#FFFFFF" points="216.2,1002.9 161.6,1097.5 158.9,1102.2 158.5,1102.8 153.1,1099.6 147.7,1096.5 142.3,1093.4 
			136.9,1090.3 131.4,1087.1 126,1084 120.6,1080.9 115.2,1077.7 115.5,1077.2 118.2,1072.5 172.9,977.8 		"/>
		<path fill="#FFFFFF" d="M221.5,993.7l-2.6,4.5l-43.3-25l2.6-4.5c1.1-1.9,3.6-2.6,5.6-1.5l36.3,21
			C222,989.3,222.7,991.7,221.5,993.7z"/>
		<path fill="#FFFFFF" d="M154.4,1104.6l-5.2,3.5l-6.7,4.5l-6.7,4.5l-6.7,4.5l-6.7,4.5l-6.7,4.5c0,0-3.4,2.4-4.9,1.6
			c-1.5-0.8-0.9-4.9-0.9-4.9l0.9-7.8l0.9-7.8l0.9-7.8l0.9-7.8l0.9-7.8l0.7-6c0.1,0.1,0.1,0.1,0.2,0.1l38.9,22.1
			C154.3,1104.5,154.4,1104.6,154.4,1104.6z"/>
	</g>
</g>
</svg>
