<?xml version="1.0" encoding="utf-8"?>
<!-- Generator: Adobe Illustrator 18.0.0, SVG Export Plug-In . SVG Version: 6.00 Build 0)  -->
<!DOCTYPE svg PUBLIC "-//W3C//DTD SVG 1.1//EN" "http://www.w3.org/Graphics/SVG/1.1/DTD/svg11.dtd">
<svg version="1.1" xmlns="http://www.w3.org/2000/svg" xmlns:xlink="http://www.w3.org/1999/xlink" x="0px" y="0px"
	 viewBox="0 0 200 200" enable-background="new 0 0 200 200" xml:space="preserve">
<g id="Layer_2">
	<path fill="#02070C" d="M99.1,192L99.1,192c-49.6,0-89.8-40.2-89.8-89.8v-2.7C9.3,49,50.3,8,100.9,8h0c49.6,0,89.8,40.2,89.8,89.8
		v2.7C190.7,151,149.7,192,99.1,192z"/>
</g>
<g id="Layer_1">
	<path fill="#14CC97" d="M118.9,34.9c1.8-1.3,3-1.8,9.1,1.4c5.5,2.8,8.4,7.2,8.8,7.7c0,0,0.1,0.1,0.1,0.1c0.4,0.4,1.2,1.8,1.2,1.9
		c0.6,0.9,0.9,2,1.4,3c0.7,3.2,0,3.6-1.8,5.8c0,0.1,0,0.1-0.1,0.1c-0.5,0.5-1.7,2.4-2.8,3.7c-0.8,0.9,1.7,2.1,3.1,5.6
		c0.3,0.6,0.2,1.5-0.3,2c-0.9,0.8-2.9,0.1-3.8-0.1c-0.1-0.1-1.6-0.9-2-0.9c-0.1,0.5-0.3,1.5-1.4,2.8c-0.3,0.3-0.7,0.5-0.7,0.9
		c1,0.5,5.3-0.1,7.6,5.4c0.1,0.3,0.2,0.7,0.3,1.1c0.1,0.3,0.5,2.2,0.6,2.5c0.4,2.5,0.6,0.9,0.6,8.9c0.1,1.6-0.1,1.3,0,2.4
		c0,0.3-0.1,0.7,0,1c0.1,0.3,0.1,0.7-0.1,1.1c-0.2,2.1-0.8,4-1,5.6c-0.3,0.3-0.1,0.7-0.3,1c-0.1,0.3-0.3,0.7-0.3,1.2
		c0.6,2.2-0.4,1.5-0.6,2.9c0,0-0.3,1.7-0.5,2c-0.1,0.4-0.1,0.7-0.1,1.2c-0.1,0.5-0.6,2.4-0.6,3.1c0,0.8,1.4,2,0.2,5.1
		c-0.1,0.6-0.1,1.3-0.3,1.9c-0.8,1.9,0.3,1.7,2.2,4.2c3.4,4.9,4.2,4.5,11.9,17.3l3.5,5.7c0.2,0.4,1.2,2.4,1.6,3
		c0.3,0.5,0.5,1.3,0.3,1.9c-0.1,0.5-0.1,0.9-0.3,1.5c-0.1,0.3-0.3,0.4-0.5,0.6c-1.4,1.4-3.2,5.4-4.2,7.7c-0.2,0.5-0.1,1-0.5,1.5
		c0,0.1-0.1,0.1-0.1,0.1c-0.1,0.1-0.2,0.3-0.3,0.4c0,0.1-0.1,0.1-0.1,0.1c-0.2,0.2-0.3,0.5-0.5,0.7c-0.1,0-0.1,0.1-0.2,0.1
		c-0.1,0.3-1,1.7-1.6,2.1c-0.1,0-0.2-0.1-0.3-0.1c-0.3-0.2-0.5-1.2-1-1.9c-0.1-0.3-1.3-2.8-1.4-2.9c-0.3-1.5-2.3-6.1-3.1-7.3
		c0-0.1,0-0.1-0.1-0.1l-0.1-0.1c-0.1-0.3-0.2-0.7-0.4-1c-0.1,0-1.6,0.3-2.2,0.6c-0.1,1.9,0.4,1.4,0.7,4c0.1,0.6,0.3,1.3,0.3,1.9
		c0,0.7,0,1.5,0.2,2.2c0.1,0.1,0.1,0.1,0.2,0.2c0.2,0.7,0.1,1.4,0,2.1c-0.3,1,0.3,2.4,0.1,3.1c-0.2,0.6-0.3,1.3-0.7,1.7
		c0,0.1,0,0.1-0.1,0.1c-0.1,0-0.1,0-0.1,0.1c-0.1,0.1-0.3,0.3-0.1,0.5c0.1,0.2,0.1,0.5,0.1,0.7c-48.7,0-44.1,0.2-45.1-0.5
		c-0.4-0.3-0.1-0.7,0.4-2.7c0.8-3.8,2.1-6.9,3-10.7c0.4-2.6,0.1-11.9,0.1-12c-0.1-0.2-0.2-0.3-0.2-0.5c0-0.3,0-0.6,0-0.9
		c-0.8,0.1-0.3,0.2-1.2,0c-0.2-0.9,0.1-1.1,0.3-2.2c0.8-5.2,1.3-2.3,1.2-15.6c-0.1-4.1-1.8-12.7-2-13.6c-0.5,0.1-0.8,0.3-1.3,0.5
		c-0.1,0-0.1,0-0.2,0.1c0,0-0.1,0.1-0.1,0.1c-0.1,0-0.1,0-0.2,0c0,0-0.1,0.1-0.1,0.1c-0.7,0.1-2.8,1.3-3.5,1.5c0,0-0.1,0.1-0.1,0.1
		c-0.3,0.1-0.6,0.2-0.8,0.4c-0.1,0-0.1,0-0.2,0.1c0,0-0.1,0.1-0.1,0.1c-0.3,0.1-0.6,0.3-0.8,0.4c-0.4,0.1-0.4,0.3-1.9,1
		C81,113.9,74,113.4,73,113c-1.8-0.4-3-3.9-8.4-8.7c-7.8-7.9-7.8-6.6-7-8.3c-0.1-0.1-0.2-0.3-0.3-0.5c0.9-1.2,1.4-2.2,2.7-4.6
		c0.1-0.3,0.1-0.5,0.1-0.8c0-0.3-0.1-0.5-0.2-0.9c-0.1-0.6-0.3-1.3-0.5-1.8c-0.1-0.3-0.7-0.7-0.6-2.3c0-0.5,0.2-0.9,0.3-1.5
		c-0.2-0.3-0.4-0.7-0.6-1c-0.1-0.3-0.2-0.7-0.5-1.1c-0.8-1.3-1.3-1.4-2.7-4.7c-0.1-0.1-0.1-0.3-0.3-0.2c-0.4,0.1-0.8,0.3-1.2,0.3
		c-0.8,0.1-1-1.2-1.4-1.9c-0.2-0.5-1.3-0.3-1.6-0.3c-3.7-0.6-5.8-1.4-5.8-5.2c0-4.4,0.8-5.8,8.5-11.3c0.5-0.3,0.8-0.7,1.3-1.1
		c0.8-0.6,0.1-1.3,0.7-2.1C55.7,55,55.8,55,56,55c0.1,0.2,0.2,0.4,0.2,0.7c5.7-7.3,2.7-6.8,2.2-8.4c-0.1-0.3,0.1-0.5,0.4-0.5
		c1.4,0.3,10.3,5.9,10.4,6.4c0.1,0.3-0.3,0.7-0.7,0.6c-0.3-0.1-0.5-0.3-0.7-0.5c-1.2-0.6-3.5,2-4,3.7c-0.3,1.1-1.3,1.8-0.7,2.7
		c0.3,0.7,0.7,1.3,1,1.9c0.5-0.1,0.9-0.4,1.3-0.8c0.3-0.1,0.6-0.3,0.8-0.5c-0.1-0.5-0.5-0.7-0.7-1.2c0-0.1,0-0.1,0-0.1
		c0.3-0.4,0.8-0.5,1.3-0.7c0.5-0.3,1-0.6,1.5-0.9c0.1,0,0.1-0.1,0.3-0.1c0.5-0.4,0.9-0.8,1.5-0.9c0.4-2.1,0.5-1.4,1.4-1.9
		c0.2-0.2,0.2-0.5,0.5-0.6c0.5-0.3,1-0.4,1.5-0.7c0.3-0.6,1.8-1.7,3.1-1.6c0.5-0.9,0.3-0.7,1.8-1.3c0.7-0.2,1-0.6,2.7,0.7
		c0.2-0.1,0.3-0.1,0.5-0.2c0.1-0.7,0.3-0.6,0.5-0.6c0.1,0.1,0.1,0.2,0.2,0.3c0.1-0.1,0.3-0.1,0.4-0.2c0.2-0.3-0.1-0.7,0.7-0.8
		c0.1,0.1,0.1,0.1,0.2,0.1c0.3-0.3,0.6-0.6,1-0.5c0.3,0,0.3,0.3,0.4,0.5c0.7-0.5,0.2-0.7,3-1.5c-0.1-0.3-0.2-0.8-0.1-1.2
		c0.3-0.7,4.2-0.2,6.4,0.8c1.2,0.5,4.1,2.3,4.1,3.6c-0.2,0.1-0.3,0.1-0.5,0.1c0,0.1-0.1,0.1-0.1,0.1c0.4,0.2,0.7,0.5,1,0.7
		c0.1,0.1,0.1,0.2,0.2,0.1c0-0.1,0.1-0.2,0.1-0.3c0.3-0.1,0.5-0.1,0.8,0c0.4,0.2,2.5,1.7,2.7,1.9c0.1,0,0.1,0,0.1,0
		c0.1-0.3,0.3-0.7,0.7-0.8c-0.1-0.5-0.6-0.5-0.8-1.1c-0.5-1.6,0.7-2.5,1.4-2.8c0.7-2.7,1.4-2.8,2.3-2.8c0.7,0,1.2-1.2,1.2-1.5
		c-0.3-0.5-4-3.9-3.4-5.2c0.4-1.1,3.5-0.3,4.3,0c1.9,0.5,3.1,1.5,3.7,1.6c0.4-0.4,0.9-0.7,1.4-1.3C114.2,39.3,116.3,36.7,118.9,34.9
		 M88.9,47.8c0,0.1,0,0.1,0,0.3c0.1,0.1,0.1,0.1,0.2,0.1c0.5-0.1,0.9-0.1,1.4-0.1c0.4,0,0.1-0.3,1.5,0.1v-0.1c0.1,0,0.2,0,0.3,0
		C91.7,47.6,89.4,47.6,88.9,47.8 M92.9,48.4c0,0.1,0,0.2,0,0.3c2.6,1.5,2.2,1.7,2.7,1.4c0-0.1,0-0.3,0-0.4c-0.1-0.1-1.2-0.7-1.3-0.7
		c-0.3-0.1-0.5-0.1-0.7-0.3C93.5,48.5,93.2,48.5,92.9,48.4 M90.3,50.1c0.1,0.3,0.1,0.5,0,0.7c-0.1,0.1-0.1,0.1-0.2,0.1
		c0,0.1,0,0.1,0,0.2H90c0,0-0.1-0.1-0.1-0.1c0-0.1,0-0.2-0.1-0.3c-0.1,0.1-0.3,0.2-0.3,0.3c-0.1,0-0.1,0.1-0.2,0.1
		c0,0.1,0,0.1,0,0.2c0,0.2-0.1,0.3-0.1,0.5c-0.1,0.1-0.2,0.1-0.3,0.2c-0.1,0.1-0.3,0.1-0.5,0.2c-0.1,0.1-0.1,0.2-0.1,0.3
		c-0.2,0.1-0.5,0.1-0.7,0.3c-3.7,2.4-3.5,2.3-3.5,2.7c-0.1,0-0.3,0.1-0.4,0.1c0.1,0.5,0.3,1,0.5,1.6c0.1,0.5,0.2,1,0.3,1.5
		c0.1,0.3,0.3,0.5,0.5,0.8c0.1,0.2,0.8,1.3,1,1.4c0.6,0.5,2.3,2.6,2.9,3.2c0.2,0.2,0.5,0.3,0.7,0.4c0.3,0.1,0.4,0.4,0.7,0.6
		c6,4.8,3.1,2.4,5.6,5c0.5,0.3,1,0.1,1.5,0.3c0.3,0.2,0.6,0.5,0.9,0.8c0.3,0.3,1,0.6,1.2,2.2c0,0.5,1,0.3,2.1,0.5
		c0.3,0.1,0.3,0.4,0.3,0.6c0.2,0.1,0.5,0.2,0.6,0.5c0.4-0.2,0.8-0.5,1.3-0.6c0.7-0.3,1.4-0.7,2.1-1c1-0.5,1.2-0.3,1.7-1.1
		c0.3-0.6,0.7-1.1,1.4-1.5c-1.5-3.5,0.5-4.2-2.2-5c-1.2-0.5-2.5-0.3-4.4-1.4c-2.2-0.9-1.8-2.1-2-2.6c-0.1-0.5,0.1-0.9,0.3-1.3
		c0.2-0.3,0.5-0.6,0.6-0.9c0.1-0.2,0.2-0.5,0.1-0.7c-0.1-0.2,0-0.4,0-0.5c-0.1,0-0.1-0.1-0.2-0.1c0-0.2,0-0.4,0.1-0.5
		c0.1-0.1,0.2-0.3,0.3-0.5c0.1-0.1,0.3-0.3,0.3-0.5c-0.4-0.2-0.8-0.4-1.3-0.5c-0.3,0.3-0.7,0.3-0.9,0.5c-0.1,0.1-0.2,0.3-0.3,0.4
		c-0.1,0-0.1-0.1-0.1-0.1c-0.1-0.3,0-0.5,0.1-0.7c0.1,0,0.1-0.1,0.2-0.1c0.1-0.1,0.1-0.3,0.1-0.5c-0.2-0.2-0.5-0.3-0.7-0.3
		c-0.1,0.1-0.3,0.3-0.5,0.3c0,0.1-0.1,0.2-0.1,0.3c-0.4,0.3-0.8-0.1-1-0.5c0.1-0.3,0.5-0.2,0.7-0.2c0-0.2,0.1-0.4,0-0.5
		c-0.1-0.2-0.5-0.2-0.5-0.5c0.3-0.4,0.4-0.5,0.3-0.6c-0.2-0.2-0.5-0.3-0.8-0.5c-0.1-0.1-0.2-0.3-0.4-0.4
		C91.3,49.8,90.9,50.1,90.3,50.1 M96.4,50.3c-0.1,0.2-0.1,0.5,0,0.7c0.3,0.1,0.5,0.3,0.8,0.3c0-0.1-0.1-0.1-0.1-0.2
		C97.2,51,97.1,50.2,96.4,50.3 M86.8,52.5c-0.1,0.1-2,1.4-2.1,1.7c0.3,0,2.2-1.2,2.5-1.6C87.1,52.5,87,52.3,86.8,52.5 M61.4,59.6
		c-0.1,0.3,0.3,0.6,0.5,0.7c0.1,0.3,0,0.5-0.3,0.7c0,0,0,0.1,0,0.1c0.2,0.1,0.1,0.4,0.1,0.7c0.4,0,0.9,0,1.2,0.5
		c0.1,0,0.2-0.1,0.3-0.1c0.1-0.2,0.2-0.3,0.4-0.4c-0.3-0.9-1.3-1.5-1.2-3.1C61.9,58.9,61.6,59.2,61.4,59.6 M66.5,58.8
		c0,0.1,0,0.1,0,0.2c0.2,0.2,0.3,0.5,0.5,0.7c0.2,0.1,0.3-0.1,0.5-0.2c0.3-0.1,0.3-0.4,0.5-0.5c0-0.1-0.1-0.2-0.1-0.3
		C66.6,58.7,67.5,58.8,66.5,58.8 M65.8,59.1c0.1,0.3,0.3,0.5,0.5,0.7c0.1,0.2,0.3,0.2,0.5,0.3c0-0.1,0-0.2,0-0.3
		C66.2,59,66.2,58.7,65.8,59.1 M60.1,60.7c-0.4,0.3-0.8,0.7-1.2,1c0,0.1,0,0.1,0,0.2c0.1,0,0.2,0,0.3-0.1c0,0,0.1,0.1,0.1,0.1
		c0.4,0,1.2-0.8,1.4-1.2c-0.1-0.1-0.1-0.1-0.2-0.1c0.1-0.1,0.1-0.3,0.2-0.4C60.5,60.3,60.3,60.6,60.1,60.7 M60.7,60.4
		c-0.1,0.1-0.1,0.2-0.1,0.3c0.1-0.1,0.3-0.1,0.5-0.1C61.1,60.5,61,60.4,60.7,60.4 M73.1,61.6c-0.3,0.3,0.3,0.4,0.1,1
		c0.7,1.7-1,2-1.6,1.2c-0.1-0.2-0.1-0.5-0.3-0.7c-0.3,0.1-0.6,0.2-0.8,0.5c-0.1,0.3,0.3,0.5,0.3,0.7c0.1,0.3-0.5,0.3-0.5,0.1
		c-0.1-0.2-0.1-0.4-0.3-0.5c-0.3,0.1-2.9,2-5,3.4c-0.1,0.1-0.5,0.3-0.4,0.5c0.1,0.9,0.6,1.9,0.6,2.8c0,0.6,0.1,1.3,0.1,1.9
		c0.3,0.4,0.7,0.3,0.9,1.4c0.1,0.9,0.3,1.9,0.5,2.8c0.3,1.7-0.1,3.6,0.2,4c0.1,0.3,0.4,0.5,0.5,0.8c2.6,6.4,0.8,1.8,3.8,7
		c2,3,1.2,2.8,2.3,4c1.7,1.6,1.6,3.1,2.7,3.2c0.5,0.1,0.9,0.1,1.4,0.4c0.1,0.1,0.3,0,0.4,0c0.3-0.1,0.7-0.1,1,0.1
		c0.3-0.4,0.8-0.5,1.3-0.8c1.9-1.3,2-1.5,2.7-1.8c0.8-0.4,0.4-0.1,0.9-1.3c0.4-0.8,1.4-1.9,2.4-2.1c0.5,0.1,0.8,0.3,1.4,0.3
		c0.2,0.1,1.3-1,1.5-1.3c1-1.2,0.8-0.7,1.5-1c0.1-0.5-0.3-1.3,0.6-1.6c0.3-0.1,0.5,0,0.7,0c-0.2-0.4-0.5-0.8-0.7-1.3
		c-0.2-0.3-0.2-0.7-0.5-0.9c-2-1.5-2.2-2.6-3.3-3.4c-3.2-2.2-2.9-2.3-4.7-3.5c-3.9-2.9-3.7-2.6-3.8-3c-0.3-0.9,0.5-2.3,1.3-3
		c0-0.3-0.3-0.6-0.4-0.8c-1.2-1.7-2.9-2.5-2-4.9c0.1-0.2,0.2-0.4,0.2-0.6c-3.8-3.2-2.1-2.2-3.8-4h-0.1
		C73.7,61.1,73.4,61.3,73.1,61.6 M57.9,62.5c-0.2,0.1-0.4,0.4-0.5,0.6c-0.1,0.1,0,0.2,0,0.3c0.2-0.1,0.4-0.2,0.5-0.4
		c0,0.1,0.1,0.2,0.3,0.3c0.3-0.2,0.5-0.5,0.7-0.7c0.1-0.1,0.1-0.2,0.1-0.3c-0.1,0-0.2,0-0.3,0c0-0.1,0-0.2,0-0.3
		C58.3,62.1,58.1,62.3,57.9,62.5 M72.3,62.8c-0.4,0.1-0.4,0.8,0,0.9c0.3,0.1,0.8,0,0.7-0.4C73.1,62.8,72.7,62.6,72.3,62.8
		 M56.2,64.6c-0.1,0.1,0,0.3,0.1,0.3c0.1,0,0.2-0.1,0.3-0.1c0.3-0.1,0.1-0.5,0.1-0.8C56.6,64.2,56.4,64.4,56.2,64.6 M55.3,65.1
		c-0.7,0.3-0.7-0.2-1.6,0.5c0,0.1,0,0.1,0,0.2c-0.1,0-0.1,0.1-0.1,0.1c-0.3,0.6-0.9,0.3-1.7,1.3c0.5,0.2,0.3-0.1,1.8,0.9
		c0.1-0.3,0.4-0.3,0.7-0.3c0.5-0.6,0.8-0.3,0.7-0.8c-0.1,0-0.1,0-0.2,0c-0.1-0.3-0.1-0.5-0.1-0.7c0-0.2,0.3-0.1,0.4-0.3
		c0.2-0.2,0.3-0.5,0.6-0.5c0.1-0.1,0.4-0.1,0.3-0.3C55.6,65,55.5,65,55.3,65.1 M51.2,69.3c0.1,0,0.3,0.1,0.3,0.1c0,0.1,0,0.2,0,0.3
		c0.3,0.3,0.8,0.3,1.4,0.3c0.2,0,0.4-0.2,0.5-0.3c0-0.1-0.1-0.1-0.1-0.1c-0.1,0-0.3,0.1-0.5,0.1c0,0,0.1,0,0.1-0.1
		c-0.1-0.7,0.4-0.4,0-0.9c0-0.1,0-0.1,0-0.1c0.1-0.1,0.2-0.2,0.3-0.4c-0.3,0-0.5,0.1-0.7,0.1c-0.3-0.3-0.6-0.6-1-0.7
		C50.9,67.8,50.9,68.7,51.2,69.3 M52.8,74.9c0.5,1.7,0.8,2.1,2.2,1.3c0.1-0.3-0.1-0.6-0.2-0.9c-0.4,0.1-0.7,0.3-1.2,0.3
		c-0.1-0.3,0.1-0.5,0.3-0.6c-0.1-0.1-0.2-0.2-0.3-0.3C53.3,74.6,52.9,74.6,52.8,74.9z"/>
</g>
</svg>
