<?xml version="1.0" encoding="utf-8"?>
<!-- Generator: Adobe Illustrator 18.0.0, SVG Export Plug-In . SVG Version: 6.00 Build 0)  -->
<!DOCTYPE svg PUBLIC "-//W3C//DTD SVG 1.1//EN" "http://www.w3.org/Graphics/SVG/1.1/DTD/svg11.dtd">
<svg version="1.1" id="Layer_1" xmlns="http://www.w3.org/2000/svg" xmlns:xlink="http://www.w3.org/1999/xlink" x="0px" y="0px"
	 viewBox="0 47.5 200 104.1" enable-background="new 0 47.5 200 104.1" xml:space="preserve">
<g>
	<g>
		<path fill="#FFFFFF" d="M66.7,123.7c-4.4,0-8.7,0-13.1,0c-2.4,0-4.7,0-7.1,0c-0.2,0-0.4,0-0.6,0c0,0.3,0,0.5,0,0.8
			c0,6.1,0,12.2,0,18.2c0,0.6-0.1,1.2-0.3,1.8c-0.6,1.3-1.6,1.9-3,1.9c-3.3,0-6.6,0-9.9,0c-6.5,0-13,0-19.5,0
			c-2.3,0-3.6-1.3-3.6-3.6c0-15.7,0-31.4,0-47.1c0-2.1,1.4-3.5,3.5-3.5c4.5,0,9.1,0,13.6,0c0.2,0,0.4,0,0.7,0c0-0.3,0-0.5,0-0.8
			c0-11.1,0-22.2,0-33.3c0-1.7,0.9-3,2.5-3.4c0.4-0.1,0.8-0.1,1.2-0.1c28.5,0,56.9,0,85.4,0c0.6,0,1.3,0.1,1.8,0.3
			c1.3,0.6,1.9,1.7,1.9,3.1c0,8.7,0,17.5,0,26.2c0,0.2,0,0.4,0,0.7c0.3,0,0.5,0,0.8,0c17.8,0,35.6,0,53.4,0c0.7,0,1.5,0.1,2.1,0.5
			c1.1,0.7,1.6,1.8,1.6,3c0,8.1,0,16.1,0,24.2c0,0.2,0,0.4,0,0.7c0.2,0,0.4,0,0.6,0c2.7,0,5.4,0,8.1,0c2.2,0,3.6,1.4,3.6,3.6
			c0,10.4,0,20.8,0,31.2c0,1.7-1,3-2.5,3.4c-0.3,0.1-0.6,0.1-0.9,0.1c-4.1,0-8.1,0-12.2,0c-1.8,0-2.9-0.9-3.4-2.6
			c0-0.1-0.2-0.3-0.4-0.3c-0.2-0.1-0.4,0-0.6,0c-25.6,0-51.1,0-76.7,0c-0.2,0-0.4,0-0.7,0c0.6-0.9,1.2-1.7,1.8-2.6
			c2.3-3.2,4.5-6.4,6.7-9.6c0.1-0.2,0.3-0.4,0.3-0.7c0-4,0-8,0-12c0-0.1,0-0.1,0-0.2c-7,0-13.9,0-20.9,0c0,3,0,5.9,0,8.9
			c4.1,0,8.1,0,12.2,0c0,1.5,0,2.9,0,4.4c-12.7,0-25.5,0-38.3,0c0-1.4,0-2.8,0-4.3c4.1,0,8.1,0,12.2,0c0-0.2,0-0.4,0-0.5
			c0-2.7,0-5.3,0-8C66.8,124,66.7,123.9,66.7,123.7c4.5,0,9,0,13.5,0c-4.3-0.1-8.7-0.1-13,0C67.1,123.7,66.9,123.7,66.7,123.7z
			 M30.6,92.2c0.3,0,0.5,0,0.7,0c3.6,0,7.3,0,10.9,0c2,0,3.7,1.3,3.7,3.7c-0.1,4.3,0,8.5,0,12.8c0,0.7,0,0.7,0.7,0.7
			c23.2,0,46.4,0,69.6,0c0.2,0,0.4,0,0.6,0c0-17.2,0-34.3,0-51.5c-28.7,0-57.4,0-86.2,0C30.6,69.3,30.6,80.7,30.6,92.2z
			 M171.1,136.2c0-0.2,0-0.4,0-0.6c0-2.4,0-4.8,0-7.2c0-3.8,0-7.6,0-11.5c0-1.6,0.9-2.9,2.4-3.3c0.4-0.1,0.7-0.1,1.1-0.2
			c0-8.4,0-16.7,0-25.1c-18.2,0-36.3,0-54.5,0c0,0.2,0,0.4,0,0.6c0,10.4,0,20.8,0,31.1c0,2.3-1.4,3.6-3.6,3.6c-3.6,0-7.2,0-10.8,0
			c-0.2,0-0.4,0-0.7,0c0,4.2,0,8.3,0,12.5C126.9,136.2,149,136.2,171.1,136.2z M12.8,95.5c0,14.5,0,28.9,0,43.3c10,0,19.9,0,29.8,0
			c0-14.5,0-28.9,0-43.3C32.6,95.5,22.7,95.5,12.8,95.5z M188.4,146.9c0-9.9,0-19.8,0-29.7c-5.2,0-10.4,0-15.6,0
			c0,9.9,0,19.8,0,29.7C178,146.9,183.2,146.9,188.4,146.9z M121.2,146.1c12.4,0,24.6,0,37,0c-0.1-0.5-0.3-1-0.4-1.5
			c-0.1-0.6-0.4-0.8-1-0.8c-11.3,0-22.6,0-33.9,0c-0.3,0-0.5,0-0.8,0c-0.1,0-0.3,0.1-0.3,0.2C121.6,144.8,121.4,145.4,121.2,146.1z
			 M73.7,115.1c-0.7,0-1.3,0-2,0c-1.3,0-2.7,0-4,0c-0.5,0-0.9,0.4-0.9,0.9s0.4,0.9,0.9,0.9c0.1,0,0.3,0,0.4,0c3.7,0,7.5,0,11.2,0
			c0.2,0,0.4,0,0.5,0c0.7-0.1,1-0.9,0.6-1.4c-0.2-0.2-0.6-0.4-0.9-0.4C77.6,115,75.6,115.1,73.7,115.1z M27.7,144.7
			C27.7,144.7,27.7,144.6,27.7,144.7c0.2-0.1,0.3-0.1,0.5-0.1c1.1,0,1.9-0.9,1.9-2s-0.8-2-1.9-2c-0.3,0-0.7,0-1,0
			c-0.9,0-1.7,0.7-1.9,1.6c-0.2,0.9,0.3,1.9,1.1,2.2C26.8,144.6,27.2,144.6,27.7,144.7z M180.7,150.8c0.6,0,1.2-0.2,1.5-0.8
			s0.1-1.2-0.4-1.6c-0.5-0.4-1.6-0.4-2.1,0s-0.7,1-0.5,1.6C179.3,150.5,179.8,150.8,180.7,150.8z M180.7,114.9c-1,0-2,0-3,0
			c-0.4,0-0.8,0-0.8,0.5s0.4,0.5,0.8,0.5c2,0,3.9,0,5.9,0c0.4,0,0.8,0,0.8-0.5s-0.4-0.5-0.7-0.5
			C182.7,114.9,181.7,114.9,180.7,114.9z M136.5,142.4c0.8,0,1.6,0,2.4,0c0.1,0,0.3-0.2,0.3-0.3c0-0.4,0-0.8,0-1.2
			c0-0.3-0.1-0.4-0.4-0.4c-0.7,0-1.3,0-2,0c-0.3,0-0.4,0.1-0.4,0.4C136.5,141.3,136.5,141.8,136.5,142.4z M108.5,142.4
			c1,0,1.8,0,2.6,0c0.1,0,0.2,0,0.2-0.1c0.3-0.6,0.6-1.2,0.9-1.9c-0.9,0-1.7,0-2.5,0c-0.1,0-0.3,0.1-0.3,0.1
			C109.1,141.2,108.8,141.7,108.5,142.4z M159.7,140.4c0.2,0.7,0.4,1.2,0.6,1.8c0,0.1,0.1,0.2,0.2,0.2c0.9,0,1.7,0,2.7,0
			c-0.3-0.7-0.5-1.2-0.7-1.8c0-0.1-0.2-0.2-0.3-0.2C161.4,140.4,160.6,140.4,159.7,140.4z M163.5,140.4c0.3,0.7,0.5,1.2,0.7,1.7
			c0,0.1,0.2,0.2,0.3,0.2c0.9,0,1.7,0,2.7,0c-0.3-0.7-0.5-1.2-0.8-1.8c0-0.1-0.2-0.2-0.3-0.2C165.3,140.4,164.4,140.4,163.5,140.4z
			 M167.3,140.4c0.3,0.7,0.6,1.3,0.9,1.8c0,0.1,0.2,0.1,0.3,0.1c0.8,0,1.7,0,2.6,0c-0.3-0.7-0.6-1.3-0.9-1.8c0-0.1-0.2-0.2-0.3-0.2
			C169,140.4,168.2,140.4,167.3,140.4z M116.5,142.4c0.9,0,1.8,0,2.6,0c0.1,0,0.2-0.1,0.3-0.2c0.2-0.6,0.4-1.1,0.6-1.8
			c-0.9,0-1.7,0-2.6,0c-0.1,0-0.2,0.1-0.2,0.2C117,141.2,116.7,141.8,116.5,142.4z M120.4,142.4c0.9,0,1.8,0,2.6,0
			c0.1,0,0.3-0.1,0.3-0.2c0.2-0.6,0.3-1.2,0.5-1.8c-0.9,0-1.7,0-2.5,0c-0.1,0-0.3,0.1-0.3,0.2C120.8,141.2,120.6,141.8,120.4,142.4z
			 M128.4,142.4c0.9,0,1.7,0,2.5,0c0.1,0,0.3-0.2,0.3-0.3c0.1-0.4,0.1-0.8,0.2-1.2c0.1-0.3-0.1-0.4-0.4-0.4c-0.7,0-1.4,0-2,0
			c-0.1,0-0.3,0.2-0.4,0.3C128.6,141.2,128.5,141.8,128.4,142.4z M143,140.4c-0.5,0-0.9,0-1.2,0c-1.6,0-1.6,0-1.5,1.6
			c0,0.1,0,0.2,0,0.2c0,0.1,0.1,0.2,0.2,0.2c0.9,0,1.7,0,2.6,0C143.1,141.7,143.1,141.1,143,140.4z M151.2,142.4
			c-0.1-0.6-0.2-1.2-0.3-1.7c0-0.1-0.2-0.3-0.4-0.3c-0.7,0-1.4,0-2,0c-0.3,0-0.4,0.1-0.3,0.4c0.1,0.4,0.1,0.9,0.2,1.3
			c0,0.1,0.2,0.3,0.3,0.3C149.5,142.4,150.3,142.4,151.2,142.4z M155.7,140.4c0.2,0.6,0.3,1.2,0.5,1.7c0,0.1,0.2,0.2,0.3,0.2
			c0.8,0,1.7,0,2.6,0c-0.2-0.6-0.4-1.2-0.6-1.8c0-0.1-0.2-0.2-0.4-0.2C157.4,140.4,156.6,140.4,155.7,140.4z M116,140.4
			c-1,0-1.8,0-2.6,0c-0.1,0-0.2,0.1-0.2,0.1c-0.3,0.6-0.5,1.2-0.8,1.8c0.9,0,1.8,0,2.6,0c0.1,0,0.3-0.1,0.3-0.2
			C115.6,141.7,115.8,141.1,116,140.4z M127.7,140.4c-0.9,0-1.7,0-2.5,0c-0.1,0-0.2,0.1-0.3,0.2c-0.2,0.5-0.3,1.1-0.4,1.7
			c0.9,0,1.8,0,2.6,0c0.1,0,0.2-0.1,0.2-0.2C127.4,141.7,127.5,141.1,127.7,140.4z M132.3,142.4c0.9,0,1.7,0,2.5,0
			c0.1,0,0.3-0.2,0.3-0.3c0.1-0.5,0.1-1,0.1-1.6c-0.8,0-1.7,0-2.5,0c-0.1,0-0.3,0.2-0.3,0.3C132.4,141.3,132.4,141.8,132.3,142.4z
			 M155.2,142.4c-0.2-0.6-0.3-1.2-0.5-1.8c0-0.1-0.2-0.2-0.2-0.2c-0.8,0-1.6,0-2.5,0c0.1,0.6,0.2,1.2,0.4,1.7c0,0.1,0.2,0.3,0.3,0.3
			C153.4,142.4,154.3,142.4,155.2,142.4z M144.1,140.4c0,0.6,0.1,1.2,0.1,1.7c0,0.1,0.1,0.3,0.2,0.3c0.8,0,1.7,0,2.6,0
			c-0.1-0.6-0.1-1.2-0.2-1.8c0-0.1-0.2-0.2-0.3-0.2C145.8,140.4,145,140.4,144.1,140.4z"/>
		<path fill="#FFFFFF" d="M79.5,115.1c0.3,0,0.7,0.2,0.9,0.4c0.4,0.5,0.1,1.3-0.6,1.4c-0.2,0-0.3,0-0.5,0"/>
		<path fill="#FFFFFF" d="M66.7,123.7c0.2,0,0.3-0.1,0.5-0.1c4.3,0,8.7,0,13,0C75.7,123.7,71.2,123.7,66.7,123.7L66.7,123.7z"/>
	</g>
</g>
</svg>
